<?xml version="1.0" encoding="utf-8"?>
<!-- Generator: Adobe Illustrator 24.0.0, SVG Export Plug-In . SVG Version: 6.00 Build 0)  -->
<svg version="1.1" id="Laag_1" xmlns="http://www.w3.org/2000/svg" xmlns:xlink="http://www.w3.org/1999/xlink" x="0px" y="0px"
	 viewBox="0 0 3605 546" style="enable-background:new 0 0 3605 546;" xml:space="preserve">
<style type="text/css">
	.st0{fill:#373636;}
</style>
<g>
	<path class="st0" d="M173.65,317.14l-57.98,63.91v129.79H24.76V43.73h90.92v211.48L302.78,43.73h119.25L236.9,247.3l186.45,263.53
		H309.37L173.65,317.14z"/>
	<path class="st0" d="M533.39,324.39l79.72-11.86c18.45-2.64,24.37-11.86,24.37-23.06c0-23.06-17.79-42.16-54.68-42.16
		c-38.21,0-59.29,24.38-61.93,52.71l-77.74-16.47c5.27-50.73,52.05-106.73,139.01-106.73c102.78,0,140.99,57.98,140.99,123.2v159.43
		c0,17.13,1.98,40.19,3.95,51.39h-80.38c-1.98-8.56-3.3-26.35-3.3-38.87c-16.47,25.7-47.43,48.1-95.53,48.1
		c-69.18,0-111.34-46.78-111.34-97.51C436.55,364.58,479.37,332.29,533.39,324.39z M637.49,379.73v-14.5l-73.13,11.2
		c-22.4,3.3-40.19,15.82-40.19,40.85c0,19.11,13.83,37.55,42.16,37.55C603.23,454.83,637.49,437.05,637.49,379.73z"/>
	<path class="st0" d="M991.9,273.66c-9.88-1.97-18.45-2.64-26.35-2.64c-44.8,0-83.67,21.74-83.67,91.58v148.23h-87.63V186.69h84.99
		v48.1c19.76-42.83,64.57-50.73,92.23-50.73c7.25,0,13.84,0.66,20.43,1.31V273.66z"/>
	<path class="st0" d="M1075.67,25.94c30.31,0,54.03,24.37,54.03,54.68c0,28.99-23.72,53.36-54.03,53.36
		c-29.65,0-54.02-24.37-54.02-53.36C1021.65,50.31,1046.03,25.94,1075.67,25.94z M1032.19,510.83V186.69h87.63v324.14H1032.19z"/>
	<path class="st0" d="M1194.31,510.83V186.69h83.67v39.53c17.79-31.63,59.29-48.75,94.87-48.75c44.14,0,79.72,19.1,96.19,54.02
		c25.69-39.53,59.95-54.02,102.78-54.02c59.95,0,117.27,36.24,117.27,123.2v210.17h-84.99V318.46c0-34.92-17.13-61.27-57.32-61.27
		c-37.55,0-59.95,28.99-59.95,63.9v189.74h-86.96V318.46c0-34.92-17.79-61.27-57.32-61.27c-38.21,0-60.61,28.33-60.61,63.9v189.74
		H1194.31z"/>
	<path class="st0" d="M2143.6,130.03v380.8h-91.58v-380.8h-147.57v-86.3h386.73v86.3H2143.6z"/>
	<path class="st0" d="M2349.64,324.39l79.72-11.86c18.45-2.64,24.38-11.86,24.38-23.06c0-23.06-17.79-42.16-54.68-42.16
		c-38.21,0-59.29,24.38-61.93,52.71l-77.74-16.47c5.27-50.73,52.05-106.73,139.01-106.73c102.78,0,140.99,57.98,140.99,123.2v159.43
		c0,17.13,1.98,40.19,3.95,51.39h-80.38c-1.98-8.56-3.3-26.35-3.3-38.87c-16.47,25.7-47.43,48.1-95.53,48.1
		c-69.18,0-111.34-46.78-111.34-97.51C2252.79,364.58,2295.62,332.29,2349.64,324.39z M2453.73,379.73v-14.5l-73.13,11.2
		c-22.4,3.3-40.19,15.82-40.19,40.85c0,19.11,13.83,37.55,42.16,37.55C2419.47,454.83,2453.73,437.05,2453.73,379.73z"/>
	<path class="st0" d="M2589.54,510.83v-77.08l153.51-171.29H2593.5v-75.77h261.55v73.13l-158.12,174.59h160.75v76.42H2589.54z"/>
	<path class="st0" d="M2915.43,510.83V186.69h83.67v39.53c17.79-31.63,59.29-48.75,94.87-48.75c44.14,0,79.72,19.1,96.19,54.02
		c25.69-39.53,59.95-54.02,102.78-54.02c59.95,0,117.27,36.24,117.27,123.2v210.17h-84.99V318.46c0-34.92-17.13-61.27-57.32-61.27
		c-37.55,0-59.95,28.99-59.95,63.9v189.74h-86.96V318.46c0-34.92-17.79-61.27-57.32-61.27c-38.21,0-60.61,28.33-60.61,63.9v189.74
		H2915.43z"/>
	<path class="st0" d="M3525.97,25.94c30.31,0,54.03,24.37,54.03,54.68c0,28.99-23.72,53.36-54.03,53.36
		c-29.65,0-54.02-24.37-54.02-53.36C3471.95,50.31,3496.33,25.94,3525.97,25.94z M3482.49,510.83V186.69h87.63v324.14H3482.49z"/>
</g>
</svg>
